<svg width="34" height="46" viewBox="0 0 34 46" fill="none" xmlns="http://www.w3.org/2000/svg">
<path d="M12.9597 0C11.4426 0 10.1922 1.22776 10.1922 2.71735V4.52892H2.98493C2.86962 4.50769 2.7543 4.50769 2.63898 4.52892H0.966906C0.938077 4.52892 0.909248 4.52892 0.880419 4.52892C0.37231 4.55369 -0.0240902 4.97828 0.00114084 5.47717C0.0263627 5.97606 0.458797 6.36527 0.966915 6.3405H1.97593L5.29126 43.0248C5.40657 44.2915 6.50568 45.2893 7.79938 45.2893H25.5003C26.794 45.2893 27.8932 44.2915 28.0085 43.0248L31.3238 6.3405H32.3328C32.6643 6.34405 32.9743 6.17421 33.1436 5.89115C33.3094 5.60809 33.3094 5.26135 33.1436 4.97829C32.9743 4.69524 32.6643 4.5254 32.3328 4.52894H23.1075V2.71737C23.1075 1.22778 21.8571 1.81157e-05 20.34 1.81157e-05L12.9597 0ZM12.9597 1.81157H20.34C20.8589 1.81157 21.2625 2.20785 21.2625 2.71735V4.52892H12.0372V2.71735C12.0372 2.20785 12.4408 1.81157 12.9597 1.81157ZM3.82097 6.34049H29.4787L26.1634 42.8833C26.1346 43.1982 25.7922 43.4777 25.5003 43.4777H7.79937C7.50747 43.4777 7.16513 43.1982 7.1363 42.8833L3.82097 6.34049ZM11.0282 9.02954C10.9886 9.03662 10.9489 9.04723 10.9129 9.05785C10.4841 9.15338 10.1814 9.53197 10.1922 9.96363V39.8545C10.1886 40.1801 10.3615 40.4843 10.6498 40.6506C10.9381 40.8134 11.2913 40.8134 11.5796 40.6506C11.8678 40.4843 12.0408 40.1801 12.0372 39.8545V9.96363C12.048 9.70181 11.9399 9.45059 11.7489 9.27368C11.5543 9.09323 11.2913 9.00478 11.0282 9.02954ZM16.5634 9.02954C16.5237 9.03662 16.4841 9.04723 16.448 9.05785C16.0192 9.15338 15.7165 9.53197 15.7273 9.96363V39.8545C15.7237 40.1801 15.8967 40.4843 16.185 40.6506C16.4733 40.8134 16.8264 40.8134 17.1147 40.6506C17.403 40.4843 17.576 40.1801 17.5724 39.8545V9.96363C17.5832 9.70181 17.4751 9.45059 17.2841 9.27368C17.0895 9.09323 16.8264 9.00478 16.5634 9.02954ZM22.0985 9.02954C22.0589 9.03662 22.0192 9.04723 21.9832 9.05785C21.5544 9.15338 21.2517 9.53197 21.2625 9.96363V39.8545C21.2589 40.1801 21.4319 40.4843 21.7201 40.6506C22.0084 40.8134 22.3616 40.8134 22.6499 40.6506C22.9382 40.4843 23.1111 40.1801 23.1075 39.8545V9.96363C23.1183 9.70181 23.0102 9.45059 22.8192 9.27368C22.6246 9.09323 22.3616 9.00478 22.0985 9.02954Z" fill="black"/>
</svg>
